<svg width="100%" height="100%" viewBox="0 0 1440 480" fill="none" xmlns="http://www.w3.org/2000/svg">
    <g clip-path="url(#clip0_2791_18860)">
        <rect width="1440" height="480" fill="#332FED"/>
        <path opacity="0.05" d="M821.673 286.096C365.189 186.684 -129.336 178.4 -319.538 186.684L-456.483 405.388L433.661 584.329L1552.05 534.623L1871.59 335.8C1711.82 360.653 1278.16 385.507 821.673 286.096Z" fill="white"/>
        <path opacity="0.1" d="M366.499 359.901C165.326 256.718 -189.776 207.772 -342.18 196.197L-456.483 230.922L-319.319 399.587L-44.9918 493.84L846.572 518.644C770.37 508.723 567.672 463.084 366.499 359.901Z" fill="white"/>
        <path opacity="0.16" d="M639.074 379.65C310.406 295.389 -136.949 301.073 -319.542 314.448L-3.60007 486.667H1460.75V464.911C1323.8 471.6 967.743 463.912 639.074 379.65Z" fill="white"/>
    </g>
    <defs>
        <clipPath id="clip0_2791_18860">
            <rect width="1440" height="480" fill="white"/>
        </clipPath>
    </defs>
</svg>